<mxfile host="65bd71144e">
    <diagram id="iXj80pbTM73fR5pZ-jIG" name="ページ1">
        <mxGraphModel dx="1429" dy="1119" grid="1" gridSize="10" guides="1" tooltips="1" connect="1" arrows="1" fold="1" page="1" pageScale="1" pageWidth="827" pageHeight="1169" math="0" shadow="0">
            <root>
                <mxCell id="0"/>
                <mxCell id="1" parent="0"/>
                <mxCell id="11" value="" style="shape=or;whiteSpace=wrap;html=1;strokeWidth=3;rotation=-90;fillColor=#1ba1e2;fontColor=#ffffff;strokeColor=#000000;" parent="1" vertex="1">
                    <mxGeometry x="280" y="190" width="60" height="80" as="geometry"/>
                </mxCell>
                <mxCell id="13" value="" style="ellipse;whiteSpace=wrap;html=1;aspect=fixed;strokeWidth=3;fillColor=#ffe6cc;strokeColor=#000000;" parent="1" vertex="1">
                    <mxGeometry x="280" y="140" width="60" height="60" as="geometry"/>
                </mxCell>
                <mxCell id="23" value="&lt;font style=&quot;font-size: 33px;&quot;&gt;&lt;b&gt;Live Build使ってカスタムフレーバの&lt;br&gt;インストールイメージ作っちゃいなYo!&lt;/b&gt;&lt;/font&gt;" style="rounded=1;whiteSpace=wrap;html=1;strokeColor=none;strokeWidth=3;fontSize=26;fontColor=#FFFFFF;fillColor=#0000CC;glass=0;shadow=1;" parent="1" vertex="1">
                    <mxGeometry x="-160" y="280" width="920" height="120" as="geometry"/>
                </mxCell>
                <mxCell id="6" value="&lt;span style=&quot;color: rgb(0, 0, 0); font-family: &amp;quot;Comic Sans MS&amp;quot;; font-size: 26px; font-style: normal; font-variant-ligatures: normal; font-variant-caps: normal; font-weight: 400; letter-spacing: normal; orphans: 2; text-align: center; text-indent: 0px; text-transform: none; widows: 2; word-spacing: 0px; -webkit-text-stroke-width: 0px; background-color: rgb(251, 251, 251); text-decoration-thickness: initial; text-decoration-style: initial; text-decoration-color: initial; float: none; display: inline !important;&quot;&gt;使わないアプリは後で削除？&lt;/span&gt;" style="rounded=1;whiteSpace=wrap;html=1;fontFamily=Comic Sans MS;fontSize=17;labelPadding=2;shadow=0;glass=0;noLabel=0;strokeOpacity=100;overflow=width;strokeWidth=3;" parent="1" vertex="1">
                    <mxGeometry x="-150" y="150" width="390" height="50" as="geometry"/>
                </mxCell>
                <mxCell id="16" value="&lt;span style=&quot;color: rgb(0, 0, 0); font-family: &amp;quot;Comic Sans MS&amp;quot;; font-size: 26px; font-style: normal; font-variant-ligatures: normal; font-variant-caps: normal; font-weight: 400; letter-spacing: normal; orphans: 2; text-align: center; text-indent: 0px; text-transform: none; widows: 2; word-spacing: 0px; -webkit-text-stroke-width: 0px; background-color: rgb(251, 251, 251); text-decoration-thickness: initial; text-decoration-style: initial; text-decoration-color: initial; float: none; display: inline !important;&quot;&gt;設定どうしよう？&lt;/span&gt;" style="rounded=1;whiteSpace=wrap;html=1;fontFamily=Comic Sans MS;fontSize=17;labelPadding=2;shadow=0;glass=0;noLabel=0;strokeOpacity=100;overflow=width;strokeWidth=3;" parent="1" vertex="1">
                    <mxGeometry x="-150" y="210" width="390" height="50" as="geometry"/>
                </mxCell>
                <mxCell id="25" value="&lt;span style=&quot;font-size: 26px;&quot;&gt;debootstrapでゼロから？&lt;/span&gt;" style="rounded=1;whiteSpace=wrap;html=1;fontFamily=Comic Sans MS;fontSize=17;labelPadding=2;shadow=0;glass=0;noLabel=0;strokeOpacity=100;overflow=width;strokeWidth=3;" parent="1" vertex="1">
                    <mxGeometry x="370" y="180" width="390" height="50" as="geometry"/>
                </mxCell>
            </root>
        </mxGraphModel>
    </diagram>
</mxfile>